# xmcd CD database file
#
# Track frame offsets:
#	150
#	17728
#	30128
#	46487
#	60112
#	74238
#	91289
#	109997
#	125010
#	137537
#	154645
#	166288
#	181154
#	193678
#	209584
#	225237
#	236779
#	252305
#
# Disc length: 3496 seconds
#
# Revision: 0
# Processed by: cddbd v1.5.2PL0 Copyright (c) Steve Scherf et al.
# Submitted via: Feurio! 1.68 - http://www.feurio.com
#
DISCID=f10da612
DTITLE=Various Artist - Country Memories
DYEAR=2007
DGENRE=Country
TTITLE0=Bruce Greaves - Dim Lights And Candles
TTITLE1=Wayne Parker jr. - Saddle Horn
TTITLE2=B. Jeff Stone - Sonny
TTITLE3=William Ray - Sixteenth Avenue
TTITLE4=Jim Owen - I Saw Jesus Waving The Stars And Stripes
TTITLE5=Terry Robichaud, Smith - Journey Of The Heart
TTITLE6=B. Jeff and Patricia Stone - Come A Little Bit Closer
TTITLE7=Phillip Clarkson - My Baby's In Love With Toby Keith
TTITLE8=Mitch Snow - The Knot
TTITLE9=Suzie Merwine - Is This How Love Feels
TTITLE10=Captain 'T' (Tom Hunnicutt) - Would The Lady
TTITLE11=Chris Anderson - My Aim Is Getting Better
TTITLE12=Wayne Parker jr. - Just In Time
TTITLE13=Vicky Starr - For Old Love's Sake
TTITLE14=Phillip Clarkson - Hell And High Water
TTITLE15=Bruce Greaves and Raewyn Hinton - Run Away Little Tear
TTITLE16=Terry Robichaud, Smith - Falling Apart At The Seams
TTITLE17=B. Jeff and Patricia Stone - He's Impressive
EXTD=
EXTT0=
EXTT1=
EXTT2=
EXTT3=
EXTT4=
EXTT5=
EXTT6=
EXTT7=
EXTT8=
EXTT9=
EXTT10=
EXTT11=
EXTT12=
EXTT13=
EXTT14=
EXTT15=
EXTT16=
EXTT17=
PLAYORDER=
